<mxfile host="app.diagrams.net" agent="Mozilla/5.0 (Windows NT 10.0; Win64; x64) AppleWebKit/537.36 (KHTML, like Gecko) Chrome/134.0.0.0 Safari/537.36" version="26.1.0" pages="2">
  <diagram name="Punto 1 - Tabla de multiplicar" id="b64OaMlh3xawNQLrCM0B">
    <mxGraphModel dx="918" dy="495" grid="0" gridSize="10" guides="1" tooltips="1" connect="1" arrows="1" fold="1" page="1" pageScale="1" pageWidth="850" pageHeight="1100" math="0" shadow="0">
      <root>
        <mxCell id="0" />
        <mxCell id="1" parent="0" />
        <mxCell id="prcK5R6eQbzqIfQRQjTR-3" style="edgeStyle=orthogonalEdgeStyle;rounded=0;orthogonalLoop=1;jettySize=auto;html=1;exitX=0.5;exitY=1;exitDx=0;exitDy=0;entryX=0.5;entryY=0;entryDx=0;entryDy=0;" edge="1" parent="1" source="prcK5R6eQbzqIfQRQjTR-1" target="prcK5R6eQbzqIfQRQjTR-2">
          <mxGeometry relative="1" as="geometry" />
        </mxCell>
        <mxCell id="prcK5R6eQbzqIfQRQjTR-1" value="Inicio" style="ellipse;whiteSpace=wrap;html=1;" vertex="1" parent="1">
          <mxGeometry x="190" y="40" width="120" height="80" as="geometry" />
        </mxCell>
        <mxCell id="prcK5R6eQbzqIfQRQjTR-16" style="edgeStyle=orthogonalEdgeStyle;rounded=0;orthogonalLoop=1;jettySize=auto;html=1;exitX=0.5;exitY=1;exitDx=0;exitDy=0;entryX=0.5;entryY=0;entryDx=0;entryDy=0;" edge="1" parent="1" source="prcK5R6eQbzqIfQRQjTR-2" target="prcK5R6eQbzqIfQRQjTR-8">
          <mxGeometry relative="1" as="geometry" />
        </mxCell>
        <mxCell id="prcK5R6eQbzqIfQRQjTR-2" value="Inicializar i a 1" style="rounded=0;whiteSpace=wrap;html=1;" vertex="1" parent="1">
          <mxGeometry x="190" y="170" width="120" height="60" as="geometry" />
        </mxCell>
        <mxCell id="prcK5R6eQbzqIfQRQjTR-21" style="edgeStyle=orthogonalEdgeStyle;rounded=0;orthogonalLoop=1;jettySize=auto;html=1;exitX=0.5;exitY=1;exitDx=0;exitDy=0;entryX=0.5;entryY=0;entryDx=0;entryDy=0;" edge="1" parent="1" source="prcK5R6eQbzqIfQRQjTR-4" target="prcK5R6eQbzqIfQRQjTR-9">
          <mxGeometry relative="1" as="geometry" />
        </mxCell>
        <mxCell id="prcK5R6eQbzqIfQRQjTR-24" style="edgeStyle=orthogonalEdgeStyle;rounded=0;orthogonalLoop=1;jettySize=auto;html=1;exitX=0;exitY=0.5;exitDx=0;exitDy=0;entryX=0;entryY=0.5;entryDx=0;entryDy=0;" edge="1" parent="1" source="prcK5R6eQbzqIfQRQjTR-4" target="prcK5R6eQbzqIfQRQjTR-8">
          <mxGeometry relative="1" as="geometry">
            <Array as="points">
              <mxPoint x="150" y="530" />
              <mxPoint x="150" y="310" />
            </Array>
          </mxGeometry>
        </mxCell>
        <mxCell id="prcK5R6eQbzqIfQRQjTR-4" value="j &amp;lt;= 9" style="rhombus;whiteSpace=wrap;html=1;" vertex="1" parent="1">
          <mxGeometry x="195" y="490" width="110" height="80" as="geometry" />
        </mxCell>
        <mxCell id="prcK5R6eQbzqIfQRQjTR-20" style="edgeStyle=orthogonalEdgeStyle;rounded=0;orthogonalLoop=1;jettySize=auto;html=1;exitX=0.5;exitY=1;exitDx=0;exitDy=0;entryX=0.5;entryY=0;entryDx=0;entryDy=0;" edge="1" parent="1" source="prcK5R6eQbzqIfQRQjTR-7" target="prcK5R6eQbzqIfQRQjTR-4">
          <mxGeometry relative="1" as="geometry" />
        </mxCell>
        <mxCell id="prcK5R6eQbzqIfQRQjTR-7" value="Inicializar j a 1" style="rounded=0;whiteSpace=wrap;html=1;" vertex="1" parent="1">
          <mxGeometry x="190" y="390" width="120" height="60" as="geometry" />
        </mxCell>
        <mxCell id="prcK5R6eQbzqIfQRQjTR-14" style="edgeStyle=orthogonalEdgeStyle;rounded=0;orthogonalLoop=1;jettySize=auto;html=1;exitX=1;exitY=0.5;exitDx=0;exitDy=0;entryX=1;entryY=0.5;entryDx=0;entryDy=0;" edge="1" parent="1" source="prcK5R6eQbzqIfQRQjTR-8" target="prcK5R6eQbzqIfQRQjTR-12">
          <mxGeometry relative="1" as="geometry">
            <Array as="points">
              <mxPoint x="400" y="310" />
              <mxPoint x="400" y="980" />
            </Array>
          </mxGeometry>
        </mxCell>
        <mxCell id="prcK5R6eQbzqIfQRQjTR-17" style="edgeStyle=orthogonalEdgeStyle;rounded=0;orthogonalLoop=1;jettySize=auto;html=1;exitX=0.5;exitY=1;exitDx=0;exitDy=0;entryX=0.5;entryY=0;entryDx=0;entryDy=0;" edge="1" parent="1" source="prcK5R6eQbzqIfQRQjTR-8" target="prcK5R6eQbzqIfQRQjTR-7">
          <mxGeometry relative="1" as="geometry" />
        </mxCell>
        <mxCell id="prcK5R6eQbzqIfQRQjTR-8" value="i &amp;lt;= 9" style="rhombus;whiteSpace=wrap;html=1;" vertex="1" parent="1">
          <mxGeometry x="195" y="270" width="110" height="80" as="geometry" />
        </mxCell>
        <mxCell id="prcK5R6eQbzqIfQRQjTR-22" style="edgeStyle=orthogonalEdgeStyle;rounded=0;orthogonalLoop=1;jettySize=auto;html=1;exitX=0.5;exitY=1;exitDx=0;exitDy=0;entryX=0.5;entryY=0;entryDx=0;entryDy=0;" edge="1" parent="1" source="prcK5R6eQbzqIfQRQjTR-9" target="prcK5R6eQbzqIfQRQjTR-10">
          <mxGeometry relative="1" as="geometry" />
        </mxCell>
        <mxCell id="prcK5R6eQbzqIfQRQjTR-9" value="Resultado = i * j" style="rounded=0;whiteSpace=wrap;html=1;" vertex="1" parent="1">
          <mxGeometry x="190" y="610" width="120" height="60" as="geometry" />
        </mxCell>
        <mxCell id="prcK5R6eQbzqIfQRQjTR-10" value="Print &quot;Resultado&quot;" style="shape=document;whiteSpace=wrap;html=1;boundedLbl=1;" vertex="1" parent="1">
          <mxGeometry x="190" y="720" width="120" height="80" as="geometry" />
        </mxCell>
        <mxCell id="prcK5R6eQbzqIfQRQjTR-28" style="edgeStyle=orthogonalEdgeStyle;rounded=0;orthogonalLoop=1;jettySize=auto;html=1;exitX=0.5;exitY=1;exitDx=0;exitDy=0;entryX=0.5;entryY=0;entryDx=0;entryDy=0;" edge="1" parent="1" source="prcK5R6eQbzqIfQRQjTR-11" target="prcK5R6eQbzqIfQRQjTR-12">
          <mxGeometry relative="1" as="geometry" />
        </mxCell>
        <mxCell id="prcK5R6eQbzqIfQRQjTR-31" style="edgeStyle=orthogonalEdgeStyle;rounded=0;orthogonalLoop=1;jettySize=auto;html=1;exitX=1;exitY=0.5;exitDx=0;exitDy=0;entryX=1;entryY=0.5;entryDx=0;entryDy=0;" edge="1" parent="1" source="prcK5R6eQbzqIfQRQjTR-11" target="prcK5R6eQbzqIfQRQjTR-4">
          <mxGeometry relative="1" as="geometry">
            <Array as="points">
              <mxPoint x="360" y="880" />
              <mxPoint x="360" y="530" />
            </Array>
          </mxGeometry>
        </mxCell>
        <mxCell id="prcK5R6eQbzqIfQRQjTR-11" value="Incrementar j en 1" style="rounded=0;whiteSpace=wrap;html=1;" vertex="1" parent="1">
          <mxGeometry x="190" y="850" width="120" height="60" as="geometry" />
        </mxCell>
        <mxCell id="prcK5R6eQbzqIfQRQjTR-15" style="edgeStyle=orthogonalEdgeStyle;rounded=0;orthogonalLoop=1;jettySize=auto;html=1;exitX=0.5;exitY=1;exitDx=0;exitDy=0;entryX=0.5;entryY=1;entryDx=0;entryDy=0;" edge="1" parent="1" source="prcK5R6eQbzqIfQRQjTR-12" target="prcK5R6eQbzqIfQRQjTR-13">
          <mxGeometry relative="1" as="geometry" />
        </mxCell>
        <mxCell id="prcK5R6eQbzqIfQRQjTR-32" style="edgeStyle=orthogonalEdgeStyle;rounded=0;orthogonalLoop=1;jettySize=auto;html=1;exitX=0;exitY=0.5;exitDx=0;exitDy=0;" edge="1" parent="1" source="prcK5R6eQbzqIfQRQjTR-12">
          <mxGeometry relative="1" as="geometry">
            <mxPoint x="150" y="310" as="targetPoint" />
            <Array as="points">
              <mxPoint x="110" y="980" />
              <mxPoint x="110" y="310" />
            </Array>
          </mxGeometry>
        </mxCell>
        <mxCell id="prcK5R6eQbzqIfQRQjTR-12" value="Incrementar i en 1" style="rounded=0;whiteSpace=wrap;html=1;" vertex="1" parent="1">
          <mxGeometry x="190" y="950" width="120" height="60" as="geometry" />
        </mxCell>
        <mxCell id="prcK5R6eQbzqIfQRQjTR-13" value="Fin" style="ellipse;whiteSpace=wrap;html=1;" vertex="1" parent="1">
          <mxGeometry x="420" y="940" width="120" height="80" as="geometry" />
        </mxCell>
        <mxCell id="prcK5R6eQbzqIfQRQjTR-18" value="No" style="text;html=1;align=center;verticalAlign=middle;whiteSpace=wrap;rounded=0;" vertex="1" parent="1">
          <mxGeometry x="280" y="310" width="60" height="30" as="geometry" />
        </mxCell>
        <mxCell id="prcK5R6eQbzqIfQRQjTR-19" value="Si" style="text;html=1;align=center;verticalAlign=middle;whiteSpace=wrap;rounded=0;" vertex="1" parent="1">
          <mxGeometry x="190" y="360" width="60" height="30" as="geometry" />
        </mxCell>
        <mxCell id="prcK5R6eQbzqIfQRQjTR-23" value="" style="endArrow=classic;html=1;rounded=0;exitX=0.517;exitY=0.846;exitDx=0;exitDy=0;exitPerimeter=0;entryX=0.5;entryY=0;entryDx=0;entryDy=0;" edge="1" parent="1" source="prcK5R6eQbzqIfQRQjTR-10" target="prcK5R6eQbzqIfQRQjTR-11">
          <mxGeometry width="50" height="50" relative="1" as="geometry">
            <mxPoint x="380" y="840" as="sourcePoint" />
            <mxPoint x="430" y="790" as="targetPoint" />
          </mxGeometry>
        </mxCell>
        <mxCell id="prcK5R6eQbzqIfQRQjTR-26" value="Si" style="text;html=1;align=center;verticalAlign=middle;whiteSpace=wrap;rounded=0;" vertex="1" parent="1">
          <mxGeometry x="242" y="574" width="60" height="30" as="geometry" />
        </mxCell>
        <mxCell id="prcK5R6eQbzqIfQRQjTR-27" value="No" style="text;html=1;align=center;verticalAlign=middle;whiteSpace=wrap;rounded=0;" vertex="1" parent="1">
          <mxGeometry x="150" y="500" width="60" height="30" as="geometry" />
        </mxCell>
      </root>
    </mxGraphModel>
  </diagram>
  <diagram id="TwN3vrzkidf7DXkM2KlC" name="Punto 2 - Cafe con leche">
    <mxGraphModel dx="780" dy="421" grid="1" gridSize="10" guides="1" tooltips="1" connect="1" arrows="1" fold="1" page="1" pageScale="1" pageWidth="850" pageHeight="1100" math="0" shadow="0">
      <root>
        <mxCell id="0" />
        <mxCell id="1" parent="0" />
        <mxCell id="X6w0GZZq2c-aBezAa6ih-1" style="edgeStyle=orthogonalEdgeStyle;rounded=0;orthogonalLoop=1;jettySize=auto;html=1;exitX=0.5;exitY=1;exitDx=0;exitDy=0;entryX=0.5;entryY=0;entryDx=0;entryDy=0;" edge="1" parent="1" source="71otdV_lBfJC3caZEscQ-1" target="SDfqFwhJ13tQVGwbdvtW-1">
          <mxGeometry relative="1" as="geometry" />
        </mxCell>
        <mxCell id="71otdV_lBfJC3caZEscQ-1" value="Inicio" style="ellipse;whiteSpace=wrap;html=1;" vertex="1" parent="1">
          <mxGeometry x="60" y="45" width="120" height="80" as="geometry" />
        </mxCell>
        <mxCell id="IotNgv09mF-i3cZZJb91-1" style="edgeStyle=orthogonalEdgeStyle;rounded=0;orthogonalLoop=1;jettySize=auto;html=1;exitX=0.5;exitY=1;exitDx=0;exitDy=0;entryX=0.5;entryY=0;entryDx=0;entryDy=0;" edge="1" parent="1" source="SDfqFwhJ13tQVGwbdvtW-1" target="X6w0GZZq2c-aBezAa6ih-2">
          <mxGeometry relative="1" as="geometry" />
        </mxCell>
        <mxCell id="SDfqFwhJ13tQVGwbdvtW-1" value="1.0 = Tinto&lt;div&gt;1.1 = Café con leche&lt;/div&gt;" style="rounded=0;whiteSpace=wrap;html=1;" vertex="1" parent="1">
          <mxGeometry x="60" y="165" width="120" height="60" as="geometry" />
        </mxCell>
        <mxCell id="IotNgv09mF-i3cZZJb91-3" style="edgeStyle=orthogonalEdgeStyle;rounded=0;orthogonalLoop=1;jettySize=auto;html=1;exitX=0.5;exitY=1;exitDx=0;exitDy=0;entryX=0.5;entryY=0;entryDx=0;entryDy=0;" edge="1" parent="1" source="X6w0GZZq2c-aBezAa6ih-2" target="IotNgv09mF-i3cZZJb91-2">
          <mxGeometry relative="1" as="geometry" />
        </mxCell>
        <mxCell id="X6w0GZZq2c-aBezAa6ih-2" value="Leer la entrada del usuario para el tipo de café (1.0 o 1.1)." style="shape=parallelogram;perimeter=parallelogramPerimeter;whiteSpace=wrap;html=1;fixedSize=1;" vertex="1" parent="1">
          <mxGeometry x="50" y="265" width="140" height="70" as="geometry" />
        </mxCell>
        <mxCell id="IotNgv09mF-i3cZZJb91-2" value="Mostrar las opciones: &quot;2.0) 4 onzas&quot;&amp;nbsp;&lt;div&gt;&quot;2.1) 6 onzas&quot;&lt;/div&gt;" style="shape=document;whiteSpace=wrap;html=1;boundedLbl=1;" vertex="1" parent="1">
          <mxGeometry x="60" y="385" width="120" height="80" as="geometry" />
        </mxCell>
        <mxCell id="IotNgv09mF-i3cZZJb91-8" style="edgeStyle=orthogonalEdgeStyle;rounded=0;orthogonalLoop=1;jettySize=auto;html=1;exitX=0.5;exitY=1;exitDx=0;exitDy=0;entryX=0.5;entryY=0;entryDx=0;entryDy=0;" edge="1" parent="1" source="IotNgv09mF-i3cZZJb91-4" target="IotNgv09mF-i3cZZJb91-6">
          <mxGeometry relative="1" as="geometry" />
        </mxCell>
        <mxCell id="IotNgv09mF-i3cZZJb91-4" value="Leer tamaño del vaso&amp;nbsp;&lt;div&gt;(1 o 2)&lt;/div&gt;" style="shape=parallelogram;perimeter=parallelogramPerimeter;whiteSpace=wrap;html=1;fixedSize=1;" vertex="1" parent="1">
          <mxGeometry x="50" y="495" width="140" height="70" as="geometry" />
        </mxCell>
        <mxCell id="IotNgv09mF-i3cZZJb91-5" value="" style="endArrow=classic;html=1;rounded=0;exitX=0.511;exitY=0.846;exitDx=0;exitDy=0;exitPerimeter=0;entryX=0.5;entryY=0;entryDx=0;entryDy=0;" edge="1" parent="1" source="IotNgv09mF-i3cZZJb91-2" target="IotNgv09mF-i3cZZJb91-4">
          <mxGeometry width="50" height="50" relative="1" as="geometry">
            <mxPoint x="90" y="445" as="sourcePoint" />
            <mxPoint x="140" y="395" as="targetPoint" />
          </mxGeometry>
        </mxCell>
        <mxCell id="IotNgv09mF-i3cZZJb91-9" style="edgeStyle=orthogonalEdgeStyle;rounded=0;orthogonalLoop=1;jettySize=auto;html=1;exitX=0.5;exitY=1;exitDx=0;exitDy=0;entryX=0.5;entryY=0;entryDx=0;entryDy=0;" edge="1" parent="1" source="IotNgv09mF-i3cZZJb91-6" target="IotNgv09mF-i3cZZJb91-7">
          <mxGeometry relative="1" as="geometry" />
        </mxCell>
        <mxCell id="IotNgv09mF-i3cZZJb91-18" style="edgeStyle=orthogonalEdgeStyle;rounded=0;orthogonalLoop=1;jettySize=auto;html=1;exitX=1;exitY=0.5;exitDx=0;exitDy=0;entryX=0;entryY=0.5;entryDx=0;entryDy=0;" edge="1" parent="1" source="IotNgv09mF-i3cZZJb91-6" target="IotNgv09mF-i3cZZJb91-17">
          <mxGeometry relative="1" as="geometry" />
        </mxCell>
        <mxCell id="IotNgv09mF-i3cZZJb91-6" value="¿Café = 1 (Tinto)?" style="rhombus;whiteSpace=wrap;html=1;" vertex="1" parent="1">
          <mxGeometry x="55" y="615" width="130" height="90" as="geometry" />
        </mxCell>
        <mxCell id="IotNgv09mF-i3cZZJb91-14" style="edgeStyle=orthogonalEdgeStyle;rounded=0;orthogonalLoop=1;jettySize=auto;html=1;exitX=0.5;exitY=1;exitDx=0;exitDy=0;entryX=0.5;entryY=0;entryDx=0;entryDy=0;" edge="1" parent="1" source="IotNgv09mF-i3cZZJb91-7" target="IotNgv09mF-i3cZZJb91-12">
          <mxGeometry relative="1" as="geometry" />
        </mxCell>
        <mxCell id="IotNgv09mF-i3cZZJb91-21" style="edgeStyle=orthogonalEdgeStyle;rounded=0;orthogonalLoop=1;jettySize=auto;html=1;exitX=1;exitY=0.5;exitDx=0;exitDy=0;entryX=0;entryY=0.5;entryDx=0;entryDy=0;" edge="1" parent="1" source="IotNgv09mF-i3cZZJb91-7" target="IotNgv09mF-i3cZZJb91-16">
          <mxGeometry relative="1" as="geometry" />
        </mxCell>
        <mxCell id="IotNgv09mF-i3cZZJb91-7" value="¿Vaso = 2.0 (4 onzas)?" style="rhombus;whiteSpace=wrap;html=1;" vertex="1" parent="1">
          <mxGeometry x="55" y="745" width="130" height="90" as="geometry" />
        </mxCell>
        <mxCell id="IotNgv09mF-i3cZZJb91-15" style="edgeStyle=orthogonalEdgeStyle;rounded=0;orthogonalLoop=1;jettySize=auto;html=1;exitX=0.5;exitY=1;exitDx=0;exitDy=0;entryX=0.5;entryY=0;entryDx=0;entryDy=0;" edge="1" parent="1" source="IotNgv09mF-i3cZZJb91-12" target="IotNgv09mF-i3cZZJb91-13">
          <mxGeometry relative="1" as="geometry" />
        </mxCell>
        <mxCell id="IotNgv09mF-i3cZZJb91-12" value="Tostando granos, triturando, mezclando con agua" style="rounded=0;whiteSpace=wrap;html=1;" vertex="1" parent="1">
          <mxGeometry x="60" y="875" width="120" height="60" as="geometry" />
        </mxCell>
        <mxCell id="IotNgv09mF-i3cZZJb91-13" value="Fin" style="ellipse;whiteSpace=wrap;html=1;" vertex="1" parent="1">
          <mxGeometry x="155" y="980" width="120" height="80" as="geometry" />
        </mxCell>
        <mxCell id="IotNgv09mF-i3cZZJb91-35" style="edgeStyle=orthogonalEdgeStyle;rounded=0;orthogonalLoop=1;jettySize=auto;html=1;exitX=0.5;exitY=1;exitDx=0;exitDy=0;entryX=0.5;entryY=0;entryDx=0;entryDy=0;" edge="1" parent="1" source="IotNgv09mF-i3cZZJb91-16" target="IotNgv09mF-i3cZZJb91-34">
          <mxGeometry relative="1" as="geometry" />
        </mxCell>
        <mxCell id="IotNgv09mF-i3cZZJb91-16" value="¿Vaso = 2.1 (6 onzas)?" style="rhombus;whiteSpace=wrap;html=1;" vertex="1" parent="1">
          <mxGeometry x="250" y="745" width="130" height="90" as="geometry" />
        </mxCell>
        <mxCell id="IotNgv09mF-i3cZZJb91-20" style="edgeStyle=orthogonalEdgeStyle;rounded=0;orthogonalLoop=1;jettySize=auto;html=1;exitX=0.5;exitY=1;exitDx=0;exitDy=0;entryX=0.5;entryY=0;entryDx=0;entryDy=0;" edge="1" parent="1" source="IotNgv09mF-i3cZZJb91-17" target="IotNgv09mF-i3cZZJb91-16">
          <mxGeometry relative="1" as="geometry" />
        </mxCell>
        <mxCell id="IotNgv09mF-i3cZZJb91-17" value="¿Café = 2 (Café con leche)?" style="rhombus;whiteSpace=wrap;html=1;" vertex="1" parent="1">
          <mxGeometry x="250" y="615" width="130" height="90" as="geometry" />
        </mxCell>
        <mxCell id="IotNgv09mF-i3cZZJb91-19" value="No" style="text;html=1;align=center;verticalAlign=middle;whiteSpace=wrap;rounded=0;" vertex="1" parent="1">
          <mxGeometry x="185" y="630" width="60" height="30" as="geometry" />
        </mxCell>
        <mxCell id="IotNgv09mF-i3cZZJb91-22" value="No" style="text;html=1;align=center;verticalAlign=middle;whiteSpace=wrap;rounded=0;" vertex="1" parent="1">
          <mxGeometry x="185" y="760" width="60" height="30" as="geometry" />
        </mxCell>
        <mxCell id="IotNgv09mF-i3cZZJb91-30" value="No" style="text;html=1;align=center;verticalAlign=middle;whiteSpace=wrap;rounded=0;" vertex="1" parent="1">
          <mxGeometry x="185" y="690" width="60" height="30" as="geometry" />
        </mxCell>
        <mxCell id="IotNgv09mF-i3cZZJb91-32" value="Si" style="text;html=1;align=center;verticalAlign=middle;whiteSpace=wrap;rounded=0;" vertex="1" parent="1">
          <mxGeometry x="310" y="720" width="60" height="30" as="geometry" />
        </mxCell>
        <mxCell id="IotNgv09mF-i3cZZJb91-33" value="Si" style="text;html=1;align=center;verticalAlign=middle;whiteSpace=wrap;rounded=0;" vertex="1" parent="1">
          <mxGeometry x="70" y="720" width="60" height="30" as="geometry" />
        </mxCell>
        <mxCell id="IotNgv09mF-i3cZZJb91-36" style="edgeStyle=orthogonalEdgeStyle;rounded=0;orthogonalLoop=1;jettySize=auto;html=1;exitX=0.5;exitY=1;exitDx=0;exitDy=0;entryX=0.5;entryY=0;entryDx=0;entryDy=0;" edge="1" parent="1" source="IotNgv09mF-i3cZZJb91-34" target="IotNgv09mF-i3cZZJb91-13">
          <mxGeometry relative="1" as="geometry" />
        </mxCell>
        <mxCell id="IotNgv09mF-i3cZZJb91-34" value="&lt;div&gt;Tostando granos, triturando, mezclando con leche.&lt;/div&gt;" style="rounded=0;whiteSpace=wrap;html=1;" vertex="1" parent="1">
          <mxGeometry x="255" y="875" width="120" height="60" as="geometry" />
        </mxCell>
        <mxCell id="IotNgv09mF-i3cZZJb91-37" value="" style="endArrow=classic;startArrow=classic;html=1;rounded=0;exitX=0.75;exitY=0;exitDx=0;exitDy=0;entryX=0;entryY=0;entryDx=0;entryDy=0;" edge="1" parent="1">
          <mxGeometry width="50" height="50" relative="1" as="geometry">
            <mxPoint x="117.5" y="719" as="sourcePoint" />
            <mxPoint x="312.5" y="719" as="targetPoint" />
          </mxGeometry>
        </mxCell>
      </root>
    </mxGraphModel>
  </diagram>
</mxfile>
